<svg xmlns="http://www.w3.org/2000/svg" viewBox="0 0 900 560" fill="none"><g stroke="#2B318C" stroke-width="3" opacity=".3"><circle cx="450" cy="276" r="72"/><path d="M450 204v144M378 276h144"/><circle cx="170" cy="120" r="38"/><circle cx="735" cy="118" r="38"/><circle cx="151" cy="419" r="38"/><circle cx="748" cy="420" r="38"/><path d="M208 130c90 18 135 61 178 107M697 132c-85 23-129 65-174 108M188 397c82-17 137-55 197-91M710 397c-74-18-126-51-186-90"/><path d="M123 177c8-40 23-59 47-59s41 19 49 59M688 175c8-39 24-58 47-58s40 19 48 58M104 476c8-40 23-59 47-59s41 19 49 59M701 477c8-40 23-59 47-59s41 19 49 59"/></g><circle cx="450" cy="276" r="13" fill="#F45A23" opacity=".7"/></svg>
