<svg xmlns="http://www.w3.org/2000/svg" viewBox="0 0 900 560" fill="none"><g stroke="#2B318C" stroke-width="3" opacity=".32"><path d="M110 448h620M170 448V354h118v94M288 448V277h118v171M406 448V198h118v250M524 448V117h118v331"/><path d="M143 300c112-28 182-95 251-132 70-37 140-42 262-87"/><path d="m620 60 44 17-27 39"/><circle cx="238" cy="172" r="45"/><path d="M157 330c10-70 36-105 81-105s72 35 84 105"/><rect x="675" y="220" width="132" height="174" rx="20"/><path d="M703 260h76M703 293h55M703 326h68"/></g><circle cx="642" cy="78" r="10" fill="#F45A23" opacity=".65"/></svg>
