<svg xmlns="http://www.w3.org/2000/svg" viewBox="0 0 960 640" fill="none"><g opacity=".72" stroke="#fff" stroke-width="3"><rect x="390" y="164" width="390" height="250" rx="24" fill="#fff" fill-opacity=".05"/><path d="M420 373h330M438 329l70-65 55 35 90-92 88 46"/><circle cx="508" cy="264" r="8" fill="#F45A23" stroke="none"/><circle cx="653" cy="207" r="8" fill="#F45A23" stroke="none"/><path d="M460 465h260l38 42H420l40-42Z" fill="#fff" fill-opacity=".07"/><circle cx="270" cy="282" r="62"/><path d="M166 503c16-92 53-138 108-138s93 46 112 138M242 276l29 32 35-44"/><path d="M96 116h176M96 137h124" opacity=".45"/></g><g fill="#F45A23"><circle cx="850" cy="112" r="7"/><circle cx="814" cy="88" r="4"/><circle cx="875" cy="164" r="4"/></g></svg>
