<svg xmlns="http://www.w3.org/2000/svg" viewBox="0 0 960 600" fill="none"><g stroke="#2B318C" stroke-width="3" opacity=".28"><path d="M88 456c95 0 104-116 206-116s108 91 207 91 113-186 213-186 103 84 169 84"/><circle cx="88" cy="456" r="13"/><circle cx="294" cy="340" r="13"/><circle cx="501" cy="431" r="13"/><circle cx="714" cy="245" r="13"/><circle cx="883" cy="329" r="13"/><rect x="254" y="88" width="410" height="220" rx="24"/><path d="M284 133h116M284 164h74M284 213h142M475 254l38-50 44 27 65-83"/><path d="M312 360v-48M520 446v-82M732 258v-70" stroke-dasharray="7 8"/></g><g fill="#F45A23" opacity=".65"><circle cx="294" cy="340" r="7"/><circle cx="714" cy="245" r="7"/></g></svg>
