<svg xmlns="http://www.w3.org/2000/svg" viewBox="0 0 960 600" fill="none"><g stroke="#fff" stroke-width="3" opacity=".34"><path d="M164 343l130-81 94 63 132-106 112 74 158-123"/><path d="m751 154 47 10-16 45"/><circle cx="338" cy="154" r="88"/><path d="m300 153 27 28 55-64" stroke="#F45A23" stroke-width="9"/><path d="M106 449h739M203 449V324h126v125M633 449V279h126v170"/><path d="M397 475c34-74 78-111 132-111s101 37 140 111"/><circle cx="529" cy="309" r="52"/></g><g fill="#F45A23" opacity=".7"><circle cx="128" cy="115" r="7"/><circle cx="842" cy="88" r="5"/></g></svg>
